PathFileType	4	(X/Y/Z)	../output/dynamic_cam2_scaled.trc
DataRate	CameraRate	NumFrames	NumMarkers	Units	OrigDataRate	OrigDataStartFrame	OrigNumFrames
60.0	60.0	119	3	m	60.0	471	784
Frame#	Time	r_acromion			r_humerus_epicondyle			r_radius_styloid		
		X1	Y1	Z1	X2	Y2	Z2	X3	Y3	Z3	

471	7.83333	0.00103	0.83058	0.16494	0.19830	0.69424	0.23563	0.15900	0.88090	0.48908
472	7.85000	0.00091	0.83056	0.16649	0.19842	0.69417	0.23639	0.15858	0.88228	0.48868
473	7.86667	0.00090	0.83054	0.16624	0.19888	0.69369	0.23388	0.15807	0.88525	0.48341
474	7.88333	0.00088	0.83054	0.15847	0.20262	0.69112	0.20707	0.16076	0.88610	0.45375
475	7.90000	0.00084	0.83054	0.15307	0.20613	0.68866	0.16809	0.16051	0.90069	0.39957
476	7.91667	0.00080	0.83052	0.14913	0.20609	0.68868	0.16467	0.16062	0.89963	0.39717
477	7.93333	0.00080	0.83042	0.14664	0.20631	0.68871	0.16019	0.16030	0.90170	0.39072
478	7.95000	0.00080	0.83032	0.14787	0.20670	0.68859	0.15209	0.15730	0.91706	0.36653
479	7.96667	0.00080	0.83023	0.14912	0.20682	0.68868	0.14492	0.15677	0.91984	0.35631
480	7.98333	0.00081	0.83016	0.14904	0.20670	0.68857	0.15695	0.15968	0.90588	0.38319
481	8.00000	0.00084	0.83003	0.15438	0.20667	0.68878	0.14099	0.15636	0.92113	0.35100
482	8.01667	0.00088	0.82985	0.15525	0.20670	0.68897	0.13820	0.15705	0.91805	0.35193
483	8.03333	0.00088	0.82972	0.15543	0.20699	0.68902	0.14050	0.15873	0.91136	0.36154
484	8.05000	0.00089	0.82967	0.15566	0.20734	0.68887	0.14803	0.16001	0.90697	0.37345
485	8.06667	0.00090	0.82956	0.15662	0.20751	0.68902	0.14872	0.16027	0.90663	0.37463
486	8.08333	0.00091	0.82941	0.15636	0.20781	0.68914	0.15209	0.16118	0.90495	0.37985
487	8.10000	0.00100	0.82938	0.15812	0.20784	0.68901	0.15434	0.16268	0.90726	0.38006
488	8.11667	0.00104	0.82937	0.16162	0.20787	0.68897	0.15839	0.16358	0.91005	0.38152
489	8.13333	0.00104	0.82936	0.16286	0.20793	0.68906	0.15914	0.16448	0.91272	0.37984
490	8.15000	0.00104	0.82935	0.16260	0.20737	0.68821	0.15945	0.16519	0.91464	0.37756
491	8.16667	0.00101	0.82934	0.15047	0.20656	0.68878	0.17263	0.16635	0.91044	0.39595
492	8.18333	0.00091	0.82934	0.14783	0.20547	0.68931	0.18013	0.17452	0.90316	0.41236
493	8.20000	0.00091	0.82933	0.14924	0.20271	0.69022	0.19848	0.17596	0.89901	0.43578
494	8.21667	0.00094	0.82949	0.15010	0.20302	0.68955	0.19567	0.17654	0.90415	0.42775
495	8.23333	0.00108	0.82968	0.15400	0.20415	0.68815	0.18911	0.17955	0.90511	0.41921
496	8.25000	0.00110	0.82997	0.16018	0.20370	0.68803	0.19634	0.18169	0.90634	0.42543
497	8.26667	0.00116	0.83016	0.15980	0.20376	0.68765	0.19363	0.18385	0.90768	0.42125
498	8.28333	0.00114	0.83016	0.16534	0.20755	0.69130	0.19011	0.19972	0.91515	0.41472
499	8.30000	0.00120	0.83012	0.16438	0.20917	0.69141	0.16697	0.20446	0.92417	0.38243
500	8.31667	0.00134	0.83003	0.16361	0.20975	0.69197	0.16125	0.20512	0.92580	0.37554
501	8.33333	0.00151	0.83005	0.16053	0.21021	0.69256	0.16671	0.20606	0.92095	0.38681
502	8.35000	0.00184	0.82996	0.15999	0.21159	0.69416	0.16790	0.21186	0.92033	0.39032
503	8.36667	0.00210	0.82982	0.15633	0.21267	0.69597	0.17200	0.21400	0.92153	0.39503
504	8.38333	0.00230	0.82962	0.14936	0.21315	0.69715	0.17158	0.21485	0.92236	0.39496
505	8.40000	0.00236	0.82930	0.14796	0.21453	0.69722	0.15432	0.23175	0.93010	0.36901
506	8.41667	0.00254	0.82925	0.14903	0.21467	0.69716	0.15641	0.23376	0.92866	0.37243
507	8.43333	0.00260	0.82920	0.14969	0.21497	0.69746	0.15620	0.23509	0.92932	0.37174
508	8.45000	0.00311	0.82978	0.15583	0.21465	0.69754	0.13959	0.24607	0.93876	0.34317
509	8.46667	0.00384	0.83004	0.15908	0.21393	0.69694	0.13361	0.24766	0.93911	0.33570
510	8.48333	0.00396	0.83022	0.16015	0.21475	0.69871	0.13241	0.24943	0.94039	0.33492
511	8.50000	0.00367	0.83027	0.15548	0.21365	0.70289	0.10876	0.26104	0.95195	0.29940
512	8.51667	0.00325	0.83033	0.15236	0.21270	0.70424	0.10011	0.26351	0.95736	0.28441
513	8.53333	0.00285	0.83035	0.14838	0.21014	0.70708	0.08252	0.26370	0.96582	0.25804
514	8.55000	0.00285	0.83038	0.14760	0.20979	0.70779	0.07942	0.26361	0.96592	0.25576
515	8.56667	0.00243	0.83039	0.14724	0.21133	0.70728	0.08637	0.27273	0.96667	0.25832
516	8.58333	0.00241	0.83045	0.13987	0.20146	0.71764	0.03911	0.28606	0.99933	0.15792
517	8.60000	0.00240	0.83062	0.13727	0.20138	0.71970	0.03430	0.28920	1.00025	0.15346
518	8.61667	0.00239	0.83074	0.13784	0.20384	0.71977	0.03984	0.29122	0.99788	0.16490
519	8.63333	0.00239	0.83084	0.13736	0.20432	0.72020	0.03999	0.29156	0.99762	0.16667
520	8.65000	0.00212	0.83108	0.13944	0.19925	0.72387	0.02923	0.29451	1.00748	0.13467
521	8.66667	0.00204	0.83144	0.13810	0.20174	0.72256	0.03434	0.29530	0.99263	0.17192
522	8.68333	0.00204	0.83158	0.13980	0.20502	0.72476	0.04035	0.31444	0.98786	0.17974
523	8.70000	0.00197	0.83158	0.13986	0.20626	0.72669	0.04106	0.32392	0.99343	0.16606
524	8.71667	0.00195	0.83160	0.14007	0.20705	0.72748	0.04213	0.32665	0.99303	0.16782
525	8.73333	0.00187	0.83161	0.14040	0.20730	0.72820	0.04240	0.32793	0.99293	0.16883
526	8.75000	0.00186	0.83171	0.14003	0.20435	0.73129	0.03318	0.33551	1.00209	0.13361
527	8.76667	0.00178	0.83183	0.14005	0.20340	0.73235	0.03072	0.33719	1.00340	0.12694
528	8.78333	0.00176	0.83194	0.13996	0.20359	0.73317	0.03037	0.33949	1.00333	0.12611
529	8.80000	0.00178	0.83215	0.13945	0.20201	0.73928	0.02206	0.35504	1.00295	0.10970
530	8.81667	0.00182	0.83223	0.13863	0.20171	0.74233	0.01837	0.36108	1.00236	0.10559
531	8.83333	0.00231	0.83224	0.13874	0.20376	0.74333	0.02036	0.36362	0.99771	0.12214
532	8.85000	0.00231	0.83227	0.13665	0.20522	0.74766	0.01761	0.37551	0.99906	0.10937
533	8.86667	0.00232	0.83228	0.13584	0.20658	0.74956	0.01780	0.37916	0.99776	0.11390
534	8.88333	0.00232	0.83231	0.13580	0.20769	0.75115	0.01859	0.38193	0.99766	0.11605
535	8.90000	0.00232	0.83232	0.13421	0.20634	0.75651	0.01121	0.40329	0.98614	0.10664
536	8.91667	0.00222	0.83246	0.13235	0.20541	0.75881	0.00668	0.41043	0.98284	0.09833
537	8.93333	0.00218	0.83250	0.13142	0.20502	0.76010	0.00447	0.41371	0.98358	0.08890
538	8.95000	0.00219	0.83251	0.13190	0.20686	0.76113	0.00735	0.41574	0.98238	0.09702
539	8.96667	0.00217	0.83252	0.13528	0.20651	0.76461	0.00826	0.42269	0.97756	0.10067
540	8.98333	0.00212	0.83253	0.13594	0.20678	0.76635	0.00852	0.44169	0.96111	0.09517
541	9.00000	0.00197	0.83254	0.13603	0.20687	0.76760	0.00835	0.45035	0.95700	0.08229
542	9.01667	0.00191	0.83256	0.13639	0.20689	0.76836	0.00847	0.45278	0.95450	0.08272
543	9.03333	0.00173	0.83259	0.13640	0.20663	0.76891	0.00810	0.45442	0.95370	0.07933
544	9.05000	0.00158	0.83260	0.12827	0.20529	0.76966	-0.00227	0.46221	0.95142	0.03746
545	9.06667	0.00153	0.83264	0.12546	0.20544	0.76995	-0.00490	0.46438	0.94833	0.03691
546	9.08333	0.00152	0.83273	0.12337	0.20823	0.76899	-0.00197	0.47761	0.92647	0.05511
547	9.10000	0.00152	0.83287	0.12452	0.20857	0.76884	-0.00009	0.48115	0.91856	0.06243
548	9.11667	0.00152	0.83300	0.12504	0.20901	0.76876	0.00127	0.48254	0.91531	0.06709
549	9.13333	0.00155	0.83304	0.12527	0.21066	0.76852	0.00439	0.48362	0.91340	0.07598
550	9.15000	0.00161	0.83306	0.12976	0.21475	0.76766	0.01664	0.48905	0.90060	0.10442
551	9.16667	0.00165	0.83306	0.13265	0.21493	0.76776	0.01975	0.49171	0.89561	0.10731
552	9.18333	0.00170	0.83307	0.13316	0.21471	0.76790	0.01967	0.49272	0.89381	0.10616
553	9.20000	0.00173	0.83308	0.13031	0.21630	0.76828	0.01960	0.50484	0.85920	0.11501
554	9.21667	0.00177	0.83310	0.13026	0.21640	0.76900	0.01924	0.50769	0.84767	0.11711
555	9.23333	0.00183	0.83309	0.12884	0.21662	0.76936	0.01791	0.50824	0.84353	0.11830
556	9.25000	0.00188	0.83301	0.12713	0.21874	0.76961	0.02013	0.51441	0.82830	0.11892
557	9.26667	0.00189	0.83294	0.12700	0.21921	0.76993	0.02069	0.51466	0.82220	0.12366
558	9.28333	0.00190	0.83288	0.12711	0.21957	0.77008	0.02141	0.51549	0.82087	0.12376
559	9.30000	0.00216	0.83252	0.12686	0.22097	0.77062	0.02297	0.51584	0.79358	0.13764
560	9.31667	0.00229	0.83226	0.13085	0.22504	0.76988	0.03604	0.51543	0.78514	0.16278
561	9.33333	0.00249	0.83201	0.13075	0.22414	0.77033	0.03294	0.51805	0.78256	0.15164
562	9.35000	0.00249	0.83175	0.13129	0.22410	0.77042	0.03317	0.51870	0.77875	0.15049
563	9.36667	0.00272	0.83168	0.13674	0.22352	0.76817	0.03817	0.52032	0.76585	0.15010
564	9.38333	0.00296	0.83175	0.14026	0.22311	0.76199	0.04451	0.51788	0.74783	0.16084
565	9.40000	0.00303	0.83177	0.13978	0.22068	0.75961	0.04017	0.51543	0.74258	0.15616
566	9.41667	0.00316	0.83179	0.13889	0.22000	0.75778	0.03889	0.51516	0.74121	0.15391
567	9.43333	0.00328	0.83179	0.13792	0.22021	0.75636	0.03918	0.51637	0.74019	0.15166
568	9.45000	0.00357	0.83179	0.13658	0.22078	0.75458	0.03985	0.51730	0.73568	0.15094
569	9.46667	0.00375	0.83180	0.13185	0.22116	0.75318	0.03671	0.51314	0.73361	0.15913
570	9.48333	0.00439	0.83180	0.12892	0.21947	0.75193	0.02960	0.51525	0.72769	0.14162
571	9.50000	0.00482	0.83181	0.12908	0.22161	0.74976	0.03543	0.50642	0.72601	0.17306
572	9.51667	0.00507	0.83181	0.12911	0.22171	0.74880	0.03597	0.50351	0.72641	0.17988
573	9.53333	0.00515	0.83184	0.12921	0.22323	0.74745	0.04080	0.50567	0.72577	0.18356
574	9.55000	0.00521	0.83188	0.13058	0.22363	0.74665	0.04382	0.49977	0.72343	0.19820
575	9.56667	0.00522	0.83190	0.13140	0.22347	0.74607	0.04480	0.49942	0.72285	0.19952
576	9.58333	0.00524	0.83191	0.13202	0.22370	0.74526	0.04678	0.50157	0.72174	0.19796
577	9.60000	0.00523	0.83195	0.13226	0.22313	0.74497	0.04592	0.50208	0.71678	0.19430
578	9.61667	0.00518	0.83208	0.13092	0.22111	0.74550	0.03937	0.51177	0.71335	0.16225
579	9.63333	0.00512	0.83215	0.13277	0.22236	0.74491	0.04506	0.50697	0.71252	0.18133
580	9.65000	0.00511	0.83219	0.13286	0.22209	0.74470	0.04473	0.50617	0.70742	0.18088
581	9.66667	0.00507	0.83222	0.13260	0.22202	0.74463	0.04453	0.50645	0.70400	0.17896
582	9.68333	0.00506	0.83223	0.13484	0.22371	0.74372	0.05201	0.49954	0.70296	0.20327
583	9.70000	0.00506	0.83225	0.13525	0.22326	0.74374	0.05128	0.50085	0.70122	0.19879
584	9.71667	0.00506	0.83227	0.13689	0.22401	0.74316	0.05552	0.49624	0.70085	0.21274
585	9.73333	0.00506	0.83232	0.13756	0.22329	0.74318	0.05432	0.49825	0.70008	0.20650
586	9.75000	0.00500	0.83247	0.13771	0.22374	0.74257	0.05666	0.49243	0.70035	0.21990
587	9.76667	0.00470	0.83259	0.13729	0.22368	0.74248	0.05712	0.49262	0.69999	0.21988
588	9.78333	0.00445	0.83273	0.13727	0.22306	0.74248	0.05625	0.49405	0.69966	0.21548
589	9.80000	0.00416	0.83284	0.13779	0.22218	0.74265	0.05513	0.49855	0.69872	0.20449
